<svg width="24" height="24" viewBox="0 0 24 24" fill="none" xmlns="http://www.w3.org/2000/svg">
<path d="M6.86736 12.4348C7.07353 14.9339 9.06605 16.9264 11.5651 17.1326V16.0562C9.65837 15.8568 8.14318 14.3416 7.94372 12.4348H6.86736Z" fill="white"/>
<path d="M7.94372 11.5775H6.86736C7.07353 9.07847 9.06605 7.08594 11.5651 6.87978V7.95613C9.65837 8.1556 8.14318 9.67079 7.94372 11.5775Z" fill="white"/>
<path d="M8.80709 12.4348C8.99798 13.8675 10.1324 15.002 11.5651 15.1929V14.325C11.7041 14.3505 11.8474 14.3638 11.9938 14.3638C12.1402 14.3638 12.2834 14.3505 12.4224 14.325V15.1929C13.8551 15.002 14.9896 13.8675 15.1804 12.4348H14.3126C14.3381 12.2958 14.3514 12.1526 14.3514 12.0062C14.3514 11.8598 14.3381 11.7165 14.3126 11.5775H15.1804C14.9896 10.1448 13.8551 9.01039 12.4224 8.8195L12.4224 9.68738C12.2834 9.66185 12.1402 9.64851 11.9938 9.64851C11.8474 9.64851 11.7041 9.66185 11.5651 9.68738V8.8195C10.1324 9.01039 8.99798 10.1448 8.80709 11.5775H9.67497C9.64944 11.7165 9.63609 11.8598 9.63609 12.0062C9.63609 12.1526 9.64944 12.2958 9.67497 12.4348H8.80709Z" fill="white"/>
<path d="M16.0438 12.4348C15.8443 14.3416 14.3292 15.8568 12.4224 16.0562V17.1326C14.9215 16.9264 16.914 14.9339 17.1202 12.4348H16.0438Z" fill="white"/>
<path d="M17.1202 11.5775L16.0438 11.5775C15.8443 9.67079 14.3292 8.1556 12.4224 7.95613V6.87978C14.9215 7.08594 16.914 9.07847 17.1202 11.5775Z" fill="white"/>
<path fill-rule="evenodd" clip-rule="evenodd" d="M6.268 2.80005C4.40785 2.80005 2.8999 4.308 2.8999 6.16815V17.7319C2.8999 19.5921 4.40785 21.1 6.268 21.1H17.8318C19.692 21.1 21.1999 19.5921 21.1999 17.7319V6.16815C21.1999 4.308 19.692 2.80005 17.8318 2.80005H6.268ZM12.4224 4.93317V6.01991C15.3952 6.22972 17.7702 8.60472 17.98 11.5775H19.0668V12.4348H17.98C17.7702 15.4076 15.3952 17.7826 12.4224 17.9924L12.4224 19.0792H11.5651V17.9924C8.5923 17.7826 6.2173 15.4076 6.0075 12.4348H4.92075V11.5775H6.0075C6.2173 8.60471 8.5923 6.22971 11.5651 6.01991V4.93317L12.4224 4.93317Z" fill="white"/>
</svg>
